<svg xmlns="http://www.w3.org/2000/svg" width="18" height="27" viewBox="0 0 18 27">
  <path fill="#545454" d="M297.873594,217.786406 C298.921406,216.53625 299.5,214.967813 299.5,213.372031 L299.5,210 L282,210 L282,213.372031 C282,214.967813 282.5775,216.535156 283.626406,217.785313 L287.001719,221.810313 C287.621875,222.550781 287.62625,223.587656 287.011563,224.3325 L283.588125,228.482188 C282.564375,229.724687 282,231.276719 282,232.851719 L282,236.25 L299.5,236.25 L299.5,232.851719 C299.5,231.276719 298.934531,229.725781 297.910781,228.483281 L294.487344,224.333594 C293.872656,223.58875 293.877031,222.551875 294.497187,221.811406 L297.873594,217.786406 Z M292.799688,225.72375 L296.223125,229.873437 C296.93625,230.739688 297.3125,231.76125 297.3125,232.96875 L296.152031,232.96875 C295.284688,230.762656 290.75,227.5 290.75,227.5 C290.75,227.5 286.214219,230.762656 285.346875,232.96875 L284.1875,232.96875 C284.1875,231.76125 284.562656,230.738594 285.276875,229.874531 L288.699219,225.725938 C289.975625,224.179375 289.966875,221.942656 288.678437,220.405937 L285.303125,216.379844 C284.58125,215.52125 284.1875,214.481094 284.1875,213.280156 L297.3125,213.280156 C297.3125,214.484375 296.915469,215.522344 296.196875,216.379844 L292.820469,220.404844 C291.533125,221.941563 291.524375,224.179375 292.799688,225.72375 L292.799688,225.72375 Z" transform="translate(-282 -210)"/>
</svg>
