<svg xmlns="http://www.w3.org/2000/svg" viewBox="0 0 1480 560" preserveAspectRatio="xMinYMin slice" >
    <g fill="none" fill-rule="evenodd">
        <path fill="#092B4D" d="M447.25 384.894c9.53 9.983 20.846 20.691 32.75 32.506 11.895-11.805 23.202-22.504 32.727-32.48-4.66.052-7.874-1.075-10.465-3.075l-5.988 11.977c-5.858 11.715-22.863 10.823-27.462-1.44l-6.018-16.05-.676 1.165a15 15 0 0 1-12.975 7.474l-1.893-.077z"/>
        <path fill="#092B4D" fill-rule="nonzero" d="M535.694 354.97c2.769-5.63 4.306-11.134 4.306-16.61 0-29.923-34.453-39.357-53.332-22.836-.655.677-1.678 1.704-3.07 3.082A32.999 32.999 0 0 0 480 323.64a33.353 33.353 0 0 0-3.59-5.036c-1.562-1.482-2.585-2.513-3.066-3.094C454.416 298.857 420 308.515 420 338.36c0 5.475 1.538 10.98 4.307 16.61h11.416c-3.886-6.356-5.723-11.783-5.723-16.61 0-10.89 6.397-18.279 16.216-20.408 9.898-2.146 19.982 1.864 25.144 10.723L480 343.5l8.64-14.825c5.116-8.78 15.222-12.8 25.13-10.684 9.841 2.1 16.23 9.45 16.23 20.369 0 4.83-1.84 10.258-5.722 16.61h11.416z"/>
        <path stroke="#092B4D" stroke-linejoin="round" stroke-width="10" d="M420 369.971h29.143l16.571-28.571 17.143 45.714L500 352.829l11.429 17.142L540 369.97"/>
        <g transform="rotate(90 -10 210)">
            <path fill="#092B4D" fill-rule="nonzero" d="M66.798 110c.68 1.317 1.383 2.645 2.108 3.983 13.31 24.542-14.375 30.342-42.418 36.817C.88 156.717-.079 169.433.004 191.667L.037 200l10-.04-.033-8.333c-.048-12.723.535-18.102 2.508-21.954 2.058-4.018 6.522-6.887 16.227-9.13l2.919-.673c20.72-4.78 29.7-7.53 37.911-12.896 13.022-8.509 16.468-21.714 8.544-36.974H66.798zM58.83 20C67.757 6.888 82.699 0 100.007 0c17.168 0 32.18 6.788 41.104 20h-13.06c-6.905-6.5-16.566-10-28.044-10-11.484 0-21.148 3.508-28.083 10H58.83zm74.34 90a233 233 0 0 1-2.062 3.983c-12.917 24.4 13.76 30.2 42.419 36.817 25.7 5.942 26.567 18.725 26.467 41.125l-.033 8.075-10-.041.033-8.079c.058-12.91-.51-18.287-2.477-22.167-2.05-4.042-6.508-6.92-16.24-9.17l-1.804-.416-1.805-.417c-20.176-4.672-29.51-7.596-37.59-13.04-12.638-8.514-15.858-21.573-8.169-36.67h11.26z"/>
            <path stroke="#092B4D" stroke-linejoin="round" stroke-width="10" d="M0 130c7 0 19.887 6.238 31.144 4.172C52.786 130.202 50 118.946 50 110m120-35c21 0 31.784 13.367 30.315 33.037C198.776 128.654 213 155 240 155"/>
            <rect width="120" height="70" x="40" y="30" fill="#092B4D" rx="5.833"/>
        </g>
        <path stroke="#092B4D" stroke-linejoin="round" stroke-width="10" d="M150 115h20m-20-20h20m-20-20h20M65 10v20m20-20v20m20-20v20"/>
        <path fill="#092B4D" d="M99.146 60C97.087 54.174 91.531 50 85 50c-8.284 0-15 6.716-15 15 0 8.284 6.716 15 15 15 6.531 0 12.087-4.174 14.146-10H105V60h-5.854zM70 110.854V110H60v.854c-5.826 2.059-10 7.615-10 14.146 0 8.284 6.716 15 15 15 8.284 0 15-6.716 15-15 0-6.531-4.174-12.087-10-14.146zM30 90h10V80H30V48a8 8 0 0 1 8-8h94a8 8 0 0 1 8 8v94a8 8 0 0 1-8 8H38a8 8 0 0 1-8-8V90zm40 20c0-16.569-13.431-30-30-30v10c11.046 0 20 8.954 20 20h10zm-5 20a5 5 0 1 1 0-10 5 5 0 0 1 0 10zm20-60a5 5 0 1 1 0-10 5 5 0 0 1 0 10zm20-10v10a5 5 0 0 1 5 5h10c0-8.284-6.716-15-15-15zm5 90h10V75h-10v75z"/>
        <path stroke="#092B4D" stroke-width="10" d="M70 222c2.909-32.738 43.767-50.367 81.969-37.458C190.17 197.45 225 115 170 115"/>
        <g transform="translate(120 430)">
            <path stroke="#092B4D" stroke-width="10" d="M85 85v40h110V85H85zm40 40v-20h30v20h-30zm0-20V85h30v20h-30zm-20 20c-11.046 0-20-8.954-20-20s8.954-20 20-20 20 8.954 20 20-8.954 20-20 20zm70 0c-11.046 0-20-8.954-20-20s8.954-20 20-20 20 8.954 20 20-8.954 20-20 20z"/>
            <circle cx="105" cy="105" r="5" fill="#092B4D"/>
            <circle cx="175" cy="105" r="5" fill="#092B4D"/>
            <path stroke="#092B4D" stroke-linejoin="round" stroke-width="10" d="M255 70c0-24.853-20.147-45-45-45m65 45c0-35.899-29.101-65-65-65m25 65c0-13.807-11.193-25-25-25"/>
            <path fill="#092B4D" d="M190 46.25V40H90v20h10V50h80v10h10V46.25z"/>
            <path stroke="#092B4D" stroke-linejoin="round" stroke-width="10" d="M55 120a5 5 0 0 0 5 5m-35-15c0 8.284 6.716 15 15 15m-25-15c0 8.284-6.716 15-15 15m45-5a5 5 0 0 1-5 5m15-5a5 5 0 0 0-5-5m-5 5a5 5 0 0 1 5-5m-25-5a5 5 0 0 0-5-5m-5 5a5 5 0 0 1 5-5"/>
            <path fill="#092B4D" d="M60 120h10v10H60z"/>
        </g>
        <path fill="#092B4D" d="M840 138.573c0 26.943-24.107 45.165-24.107 66.427h-41.786c0-21.262-24.107-39.49-24.107-66.427C750 110.47 772.487 95 794.974 95 817.487 95 840 110.49 840 138.573zM815 245v-20c5.523 0 10 4.477 10 10s-4.477 10-10 10zm-105-10h105v10H710v-10zm63-20c-5.523 0-10 4.477-10 10s4.477 10 10 10m0-20h107v10H773zm9 40h20c0 2.761-4.477 5-10 5s-10-2.239-10-5z"/>
        <path stroke="#092B4D" stroke-linejoin="round" stroke-width="10" d="M854 125c0-24.853-20.147-45-45-45m65 45c0-35.899-29.101-65-65-65M285 252.638V194.76c0-10.913 8.847-19.76 19.76-19.76h.48c10.913 0 19.76 8.847 19.76 19.76v57.878A29.94 29.94 0 0 1 335 275c0 16.569-13.431 30-30 30-16.569 0-30-13.431-30-30a29.94 29.94 0 0 1 10-22.362z"/>
        <path fill="#092B4D" d="M300 260.854c-5.826 2.059-10 7.615-10 14.146 0 8.284 6.716 15 15 15 8.284 0 15-6.716 15-15 0-6.531-4.174-12.087-10-14.146V224.92a4.92 4.92 0 0 0-4.92-4.92h-.16a4.92 4.92 0 0 0-4.92 4.92v35.934zM340 190h40v10h-40zm10-20h10v20h-10zm0 70h10v70h-10zm-10-10h20v10h-20zm0-20h30v10h-30zm1085 330a5 5 0 0 1-5-5v-35h10v35a5 5 0 0 1-5 5zm-40 0a5 5 0 0 1-5-5v-35h10v35a5 5 0 0 1-5 5zm60-50h-80a5 5 0 0 1 0-10h80a5 5 0 0 1 0 10zm-75-30c0-19.33 15.67-35 35-35s35 15.67 35 35h-70zm70 20h-70v-20h70v20zm-20-10v-10h-30v10h30zm0-20v-10h-30v10h30zm-10-35h-10v-5h10z"/>
        <g fill="#092B4D">
            <path fill-rule="nonzero" d="M535 50c0-16.569 13.431-30 30-30 16.569 0 30 13.431 30 30h-10c0-11.046-8.954-20-20-20s-20 8.954-20 20h-10zm10 0h-10c0-16.569 13.431-30 30-30 16.569 0 30 13.431 30 30h-10c0-11.046-8.954-20-20-20s-20 8.954-20 20z"/>
            <path d="M535 50h10v30h-10zm50 0h10v30h-10zm-15 90h5.854c2.059 5.826 7.615 10 14.146 10 8.284 0 15-6.716 15-15 0-8.284-6.716-15-15-15-6.531 0-12.087 4.174-14.146 10H570a5 5 0 0 1-5-5v-5h-10v50h10v-25a5 5 0 0 1 5-5zm-15.854-30c-2.059-5.826-7.615-10-14.146-10-8.284 0-15 6.716-15 15 0 8.284 6.716 15 15 15 6.531 0 12.087-4.174 14.146-10H555v-10h-.854zM525 90h80c5.523 0 10 4.477 10 10v60c0 5.523-4.477 10-10 10h-80c-5.523 0-10-4.477-10-10v-60c0-5.523 4.477-10 10-10zm15 30a5 5 0 1 1 0-10 5 5 0 0 1 0 10zm50 20a5 5 0 1 1 0-10 5 5 0 0 1 0 10zm-25-20c0-5.523-4.477-10-10-10v10h10z"/>
        </g>
        <path stroke="#092B4D" stroke-linejoin="round" stroke-width="10" d="M695 495h-35l-9.375-75H642.5a2.5 2.5 0 1 1 0-5h135a2.5 2.5 0 1 1 0 5h-8.125L760 495h-35"/>
        <path fill="#092B4D" d="M694.146 460c-2.059-5.826-7.615-10-14.146-10-8.284 0-15 6.716-15 15 0 8.284 6.716 15 15 15 6.531 0 12.087-4.174 14.146-10H700a5 5 0 0 1 5 5v25h10v-50h-10v5a5 5 0 0 1-5 5h-5.854zm21.708-20H715v10h.854c2.059 5.826 7.615 10 14.146 10 8.284 0 15-6.716 15-15 0-8.284-6.716-15-15-15-6.531 0-12.087 4.174-14.146 10zM705 450h10v-10c-5.523 0-10 4.477-10 10zm-25 20a5 5 0 1 1 0-10 5 5 0 0 1 0 10zm50-20a5 5 0 1 1 0-10 5 5 0 0 1 0 10zm-25-120h10v70h-10z"/>
        <path fill="#092B4D" d="M710.998 344.98a50.23 50.23 0 0 1-.998-9.99c0-27.28 21.848-49.458 49.002-49.99a50.23 50.23 0 0 1 .998 9.99c0 27.281-21.848 49.459-49.002 49.99zm-50-59.98c27.154.532 49.002 22.71 49.002 49.99a50.23 50.23 0 0 1-.998 9.99C681.848 344.45 660 322.271 660 294.99c0-3.421.344-6.762.998-9.99z"/>
        <path stroke="#092B4D" stroke-linejoin="round" stroke-width="10" d="M565 395c0-13.807-11.193-25-25-25m395 80c0 13.807-11.193 25-25 25"/>
        <path fill="#092B4D" d="M1359.214 47.452l89.33-10.968 6.093 49.627-79.404 9.75-16.019-48.41zm1.897 40.067l-16.873 2.072-3.656-29.776 11.91-1.463 8.62 29.167z"/>
        <path stroke="#092B4D" stroke-linejoin="round" stroke-width="10" d="M1415.118 90.662l7.811 40.547h57.352"/>
        <path fill="#092B4D" d="M1405 91.437L1424.851 89l1.219 9.925-19.851 2.437z"/>
        <g transform="translate(1094.8 21)">
            <ellipse cx="60.6" cy="100" stroke="#092B4D" stroke-width="10" rx="35.4" ry="35"/>
            <path stroke="#092B4D" stroke-width="10" d="M5 45h111.2v110H5z"/>
            <path fill="#092B4D" d="M20.2 20h30.3v10H20.2z"/>
            <ellipse cx="95.95" cy="25" fill="#092B4D" rx="5.05" ry="5"/>
            <ellipse cx="75.75" cy="25" fill="#092B4D" rx="5.05" ry="5"/>
            <path stroke="#092B4D" stroke-width="10" d="M5 5h111.2v40H5z"/>
            <path fill="#092B4D" d="M20.2 99.56v.085C20.2 121.933 38.288 140 60.6 140c22.312 0 40.4-18.067 40.4-40.355v-.096l-7.276-.051c-11 4.967-23.05 4.606-33.211.09-10.193-4.585-22.235-4.943-33.23.022l-7.083-.05z"/>
        </g>
        <path stroke="#092B4D" stroke-linejoin="round" stroke-width="10" d="M1069.55 171c0 2.761 2.261 5 5.05 5m-35.35-15c0 8.284 6.783 15 15.15 15m-25.25-15c0 8.284-6.783 15-15.15 15m45.45-5c0 2.761-2.261 5-5.05 5m15.15-5c0-2.761-2.261-5-5.05-5m-5.05 5c0-2.761 2.261-5 5.05-5m-25.25-5c0-2.761-2.261-5-5.05-5m-5.05 5c0-2.761 2.261-5 5.05-5"/>
        <path fill="#092B4D" d="M1074.6 171h10.1v10h-10.1z"/>
        <g fill="#092B4D">
            <path fill-rule="nonzero" d="M1140 460c0 22.091-17.909 40-40 40s-40-17.909-40-40h10c0 16.569 13.431 30 30 30 16.569 0 30-13.431 30-30h10zm-10 0h10c0 22.091-17.909 40-40 40s-40-17.909-40-40h10c0 16.569 13.431 30 30 30 16.569 0 30-13.431 30-30z"/>
            <path d="M1095 499h10v21h-10zm18.42-2.093l8.66-5 10.5 18.186-8.66 5zm16.987-13.327l5-8.66 18.186 10.5-5 8.66zm-45.827 13.327l-8.66-5-10.5 18.186 8.66 5zm-14.986-13.327l-5-8.66-18.187 10.5 5 8.66z"/>
            <path fill-rule="nonzero" d="M1280 460c0 22.091-17.909 40-40 40s-40-17.909-40-40h10c0 16.569 13.431 30 30 30 16.569 0 30-13.431 30-30h10zm-10 0h10c0 22.091-17.909 40-40 40s-40-17.909-40-40h10c0 16.569 13.431 30 30 30 16.569 0 30-13.431 30-30z"/>
            <path d="M1235 499h10v21h-10zm18.42-2.093l8.66-5 10.5 18.186-8.66 5zm16.987-13.327l5-8.66 18.186 10.5-5 8.66zm-45.827 13.327l-8.66-5-10.5 18.186 8.66 5zm-14.986-13.327l-5-8.66-18.187 10.5 5 8.66z"/>
        </g>
        <path stroke="#092B4D" stroke-linejoin="round" stroke-width="10" d="M355 310c0 20-35.57 39.379-15 60 20.57 20.621 60 0 80 0m584.11-34.972c-.195 4.912 6.177 13.757 10.132 21.053 15.305 28.223-16.531 34.893-48.78 42.339C936.01 405.224 935 420 935.005 445l-.005 5m215-55c-18.92-.086-33.928-2.517-40.6-4.424-21.499-6.144-36.024-14.711-25.18-35.194 3.751-7.085 9.621-15.924 9.602-20.392"/>
        <path fill="#092B4D" d="M995 285h15v40h-15c-5.523 0-10-4.477-10-10v-20c0-5.523 4.477-10 10-10z"/>
        <path stroke="#092B4D" stroke-linejoin="round" stroke-width="10" d="M1095 275c0-30.376-20.147-50-45-50s-45 19.624-45 50"/>
        <path fill="#092B4D" d="M1105 285h-15v40h15c5.523 0 10-4.477 10-10v-20c0-5.523-4.477-10-10-10z"/>
        <path stroke="#092B4D" stroke-linejoin="round" stroke-width="10" d="M560.16 180.941c.16 80.941 29.985 85.326 73.111 49.059C676.398 193.733 680 240 710 240M565 390c0 70-56.517 32.817-35.212 94.848C551.093 546.878 710 560 710 500m200-25c-40 0-52.424-46.824-73.73 15.206C814.967 552.237 710 560 710 500"/>
        <g transform="translate(1280 180)">
            <mask id="a" fill="#fff">
                <rect width="90" height="121.008" rx="45"/>
            </mask>
            <path fill="#092B4D" d="M85.931 79.463c.388 1.644 1.112 2.637 2.886 3.944.893.659 1.98 1.324 3.465 2.124.031.017 4.291 2.221 5.704 3.043l-5 8.706c-1.16-.647-5.187-2.732-5.413-2.853-1.867-1.006-3.337-1.905-4.659-2.88-3.576-2.637-5.73-5.588-6.712-9.753-.878-3.725-.843-8.407.346-14.164 1.883-6.461 2.947-13.06 3.383-20.034 1.215-19.454-13.44-36.217-32.732-37.442C27.908 8.929 11.284 23.706 10.07 43.16c-.503 8.054-2.558 11.408-6.494 13.907-1.799 1.143-4.035 2.077-6.461 2.726l-2.527-9.774c1.463-.375 2.773-.922 3.66-1.485.482-.306.627-.448.717-.596.122-.199.268-.525.439-1.083.32-1.05.57-2.465.686-4.328C1.65 17.514 23.024-1.485 47.828.09 72.632 1.665 91.473 23.218 89.91 48.23c-.418 6.695-1.37 13.093-2.817 19.174-1.193 6.264-1.581 10.284-1.163 12.059zm-44.108 24.395a78.967 78.967 0 0 1-6.276 4.409c-12.922 8.205-27.084 11.994-39.094 12.699l-.581-10.067c10.456-.614 23.025-3.977 34.346-11.165a64.915 64.915 0 0 0 8.911-6.787l7.172-7.333c2.09 12.694 8.648 22.79 18.905 30.353 2.608 1.923 5.225 3.525 8.24 5.147l-14.27 2.973c-7.487-5.574-13.35-12.345-17.353-20.229z" mask="url(#a)"/>
            <path fill="#092B4D" fill-rule="nonzero" d="M-4.71 100.832c8.902-.522 19.879-3.46 29.6-9.632 14.598-9.27 23.773-24.244 25.1-45.505.174-2.78-1.92-5.174-4.676-5.349-2.756-.175-5.13 1.936-5.304 4.715-1.121 17.96-8.516 30.029-20.45 37.606-8.119 5.156-17.503 7.667-24.85 8.098-2.757.162-4.862 2.546-4.702 5.326.16 2.78 2.526 4.903 5.282 4.74z" mask="url(#a)"/>
            <path fill="#092B4D" fill-rule="nonzero" d="M66.473 84.126c1.576 6.685 5.16 11.595 10.538 15.561 1.75 1.291 3.603 2.425 5.853 3.636.42.226 4.216 2.19 5.12 2.717 2.392 1.392 3.211 4.476 1.83 6.887a4.977 4.977 0 0 1-6.83 1.846c-.65-.38-4.215-2.224-4.83-2.555-2.631-1.416-4.866-2.784-7.045-4.39-7.182-5.297-12.195-12.164-14.365-21.37-1.63-6.914-1.533-14.829.437-23.855 1.543-5.065 2.428-10.484 2.79-16.274.52-8.338-5.76-15.522-14.028-16.047-8.268-.525-15.393 5.808-15.913 14.146-.916 14.657-6.53 23.821-15.798 29.706-4.546 2.887-9.71 4.774-14.385 5.767l-.29-10.27c3.473-.988 6.635-2.308 9.347-4.03 6.601-4.192 10.436-10.452 11.145-21.807.868-13.896 12.742-24.451 26.522-23.576 13.78.875 24.247 12.849 23.38 26.744-.339 5.422-1.094 10.576-2.237 15.453-2.395 8.606-2.638 15.782-1.24 21.71z" mask="url(#a)"/>
        </g>
        <path stroke="#092B4D" stroke-linejoin="round" stroke-width="10" d="M880 220c50 0 50-44 134-44m391 234c0-16.569-13.431-30-30-30m-225 15c30 0 84.601 28.523 124.987 22.335C1316.224 411.017 1347 380 1375 380M120 555c-61.559-.263-74.309-56.375-75.002-95.204M170.08 75.236C245 75 261.59 25 290.793 24.674 319.995 24.345 331.489 45.256 370 40c38.511-5.256 89.758 13.365 70 70-19.758 56.635 20 130 60 130s60-30 60-60M170 95c39.836.377 186.307-14.196 185 75"/>
    </g>
</svg>
