<svg xmlns="http://www.w3.org/2000/svg" width="18" height="15" viewBox="0 0 18 15">
  <path fill="#545454" d="M37.4648259,161.44405 L20.0351293,161.44405 L21.9614615,158.394252 L21.9614615,152.784137 L22.745598,152 L34.7543572,152 L35.5384937,152.784137 L35.5384937,158.394297 L37.4648259,161.44405 Z M33.9702207,153.568273 L23.5297345,153.568273 L23.5297345,157.482772 C24.5402848,157.221363 26.2860415,156.899016 28.7499776,156.899016 C31.2139137,156.899016 32.9596704,157.221363 33.9702207,157.482772 L33.9702207,153.568273 Z M32.9020028,156.540822 C32.9020028,156.540822 31.8651951,156.279772 31.1524822,156.212292 C30.5108793,156.151443 29.3863828,156.083111 29.3863828,156.083111 L29.3863828,155.169525 C29.3863828,154.627261 30.173387,154.187517 31.1441928,154.187517 C32.1149986,154.187517 32.9020028,154.627261 32.9020028,155.169525 L32.9020028,156.540822 Z M28.1135724,156.083111 C28.1135724,156.083111 26.9891207,156.151487 26.3475178,156.212292 C25.6348497,156.279772 24.5979972,156.540822 24.5979972,156.540822 L24.5979972,155.169525 C24.5979972,154.627261 25.3849566,154.187517 26.3557624,154.187517 C27.3265682,154.187517 28.1135724,154.627261 28.1135724,155.169525 L28.1135724,156.083111 Z M20,162.408986 L37.5,162.408986 L37.5,163.977259 L35.6727827,163.977259 L35.6727827,166.136861 L34.1045097,166.136861 L34.1045097,163.977259 L23.3954455,163.977259 L23.3954455,166.136861 L21.8271725,166.136861 L21.8271725,163.977259 L20,163.977259 L20,162.408986 Z" transform="translate(-20 -152)"/>
</svg>
