<svg xmlns="http://www.w3.org/2000/svg" width="101" height="222" viewBox="0 0 101 222">
  <path fill="#DA1B1B" d="M186.931603,215.241253 L189.063098,179.770484 L194.94857,169.736842 C194.94857,169.736842 181.553182,175.209453 159.12712,175.209453 C136.700666,175.209453 123.508334,169.838041 123.508334,169.838041 L130.104304,180.783262 L132.437676,215.241253 C132.437676,218.935422 144.636332,221.929825 159.684836,221.929825 C174.732555,221.929825 186.931603,218.935422 186.931603,215.241253 M202.880294,0.561431434 C202.912511,0.457342506 202.963287,0.364933306 203.033622,0.286091673 C203.671147,-0.427644565 205.669182,0.240119579 207.497503,1.77706797 C209.325023,3.31479556 210.29074,5.14043312 209.654418,5.85416935 C209.610346,5.90359857 209.559749,5.94640354 209.503134,5.98275468 L209.51909,5.99635042 L184.770749,32.0468747 L180.301759,49.7177928 C197.717912,50.8155287 209.850214,53.2747396 209.850214,56.1319142 C209.850214,60.0122555 187.480547,63.1578947 159.88627,63.1578947 C132.2916,63.1578947 109.921541,60.0122555 109.921541,56.1319142 C109.921541,52.2519653 132.2916,49.1059336 159.88627,49.1059336 C163.793743,49.1050609 167.700954,49.1700892 171.606236,49.3009907 L176.795145,28.1889042 L202.880294,0.561431434 Z M185.903739,128.538933 C186.63334,135.571747 198.028454,129.332587 201.628996,125.819128 L197.228246,165.465234 C197.228246,165.465234 187.460222,172.807018 159.085408,172.807018 C130.710595,172.807018 121.291288,165.348878 121.291288,165.348878 L117.747231,131.119191 C124.570178,134.473054 129.903327,127.69693 132.798195,125.020365 C132.979811,126.841954 127.962823,137.238458 131.042838,138.214899 C134.122461,139.192127 135.414168,130.69701 137.871276,122.643729 C140.058511,115.471761 143.339362,107.359909 140.321716,106.535201 C137.304463,105.710494 136.372456,113.570767 134.992882,116.223746 C133.033943,119.989963 121.456429,132.675443 120.070579,123.261277 C118.982846,115.877039 127.215178,101.065716 131.042838,97.3116847 C132.962159,95.4287728 135.93195,93.690912 138.065052,94.2325931 C141.021113,94.9830062 141.274512,100.092812 143.770846,99.950513 C149.668455,99.6132399 142.783531,89.6613233 137.626115,89.3948067 C126.288271,88.8090993 119.095424,106.259251 116.066403,114.886446 L110.359824,59.7654781 C110.359824,59.7654781 116.406884,65.2428256 159.318018,65.2428256 C202.228759,65.2428256 208.973647,59.6491228 208.973647,59.6491228 L202.270731,120.038313 C199.835589,123.329675 194.132149,126.949661 190.611627,127.4084 C187.000887,127.878931 201.482683,118.652663 199.070293,112.265307 C197.033686,106.870116 188.597772,112.317588 186.342284,114.904135 C186.898115,113.28263 187.282921,111.153249 184.990561,111.011736 C182.698986,110.870616 182.857459,117.511909 179.419312,121.543857 C175.981165,125.575804 174.152847,125.648919 170.64174,126.895022 C167.130633,128.141517 174.575702,111.676062 178.881133,101.709601 C179.798626,99.5861165 181.906624,93.8898167 179.349097,93.0446683 C176.791571,92.1991269 173.467964,103.297694 169.738761,112.209488 C166.009558,121.121676 166.394363,123.807675 165.275642,125.020365 C163.546566,126.895022 160.70426,127.74528 160.00957,127.219323 C156.565146,124.613514 165.777341,111.483054 163.14097,110.341121 C160.5046,109.199188 157.233555,119.144029 156.085414,120.664116 C155.948908,120.844939 149.81006,129.068822 147.554181,127.349436 C146.237369,126.345872 148.208468,121.443225 149.914793,117.543357 C150.690681,115.771297 153.653018,111.207889 151.188065,110.197642 C148.723504,109.187002 138.811913,129.219376 145.087266,131.617632 C149.865761,133.444332 153.846794,129.048381 155.620588,125.899712 C154.81685,133.35392 161.941443,131.816537 165.275642,128.978804 C167.349513,134.846492 175.396699,128.580994 177.590994,126.96853 C175.689324,133.346059 168.904426,144.084946 171.858919,145.691907 C174.814195,147.299654 179.32007,134.240343 180.636882,131.177762 C184.230364,122.821407 187.785012,114.842813 194.927257,114.433604 C198.244981,114.695797 185.317313,122.884694 185.903739,128.538933 Z" transform="translate(-109)"/>
</svg>
