<svg width="196" height="97" viewBox="0 0 196 97" xmlns="http://www.w3.org/2000/svg">
	<g fill="#CC3D19" fill-rule="evenodd">
		<text x="-2.1779999999999973" y="64">html</text>
		<svg xmlns="http://www.w3.org/2000/svg" x="111.125" width="84.875" height="97" viewBox="0 0 35 40">
		  <path fill="#CC3D19" d="M7.67611896,7.03734071 L8.33685587,14.3132077 L33.9906416,14.348283 L32.0857169,36.043109 L17.6410248,40.0257765 L3.25572852,35.9793013 L2.22840068,25.0131679 L9.21772315,24.3555718 L9.79442472,30.5115291 L17.6598348,32.7240096 L25.5202667,30.5567439 L26.3266509,21.3729868 L1.92587088,21.3396246 L-0.0118290998,0.00216482566 L34.9859353,0.00216482566 L34.9859353,7.03734071 L7.67611896,7.03734071 Z M4.43619799,4.07251658 L34.9859353,4.07251658 L34.9859353,2.96698895 L3.22809187,2.96698895 L4.62764312,18.3784918 L29.5564755,18.4125759 L28.287135,32.8688549 L17.6519077,35.8011828 L7.03883132,32.8158045 L6.27222297,24.6327016 L5.17390086,24.7360381 L6.01132192,33.6750259 L17.6489519,36.9486033 L29.3188486,33.730998 L30.7608169,17.3086939 L5.63508362,17.2743405 L4.43619799,4.07251658 Z"/>
		</svg>
	</g>
</svg>