<svg xmlns="http://www.w3.org/2000/svg" viewBox="0 0 29 64">
  <path fill-rule="evenodd" d="M9.59315264,106.4016 C9.59315264,99.4192 5.48408559,85 28.7794579,85 L28.7794579,91.4064 C13.0914556,91.384 16.0973101,98.808 16.0973101,106.4016 C16.0973101,112.4016 12.2248742,115.3008 8.81290956,117 C12.2248742,118.6992 16.0973101,123.2016 16.0973101,129.8992 C16.0973101,137.4736 13.0562807,142.5936 28.7794579,142.5936 L28.7794579,149 C5.49687646,149 9.59315264,136.8816 9.59315264,129.8992 C9.59315264,124.9552 4.99483481,120.7568 0,120.7568 L0,113.24 C4.99483481,113.2432 9.59315264,111.3424 9.59315264,106.4016 L9.59315264,106.4016 Z" transform="translate(0 -85)"/>
</svg>
