<svg xmlns="http://www.w3.org/2000/svg" width="320" height="409" viewBox="0 0 320 409"><defs><linearGradient id="a" x1="50%" x2="50%" y1="0%" y2="100%"><stop offset="0%" stop-color="#FFF"/><stop offset="100%" stop-color="#FAFAFA"/></linearGradient></defs><path fill="url(#a)" fill-rule="evenodd" d="M1172.942 1527.313a13.722 13.722 0 0 1 1.064 3.192c.181.897.307 2.775 3.052 2.775 7.696-.002 14.467 0 20.311 0 9.202 0 8.874-6.35 8.25-9.378-4.328-20.998-22.902-36.785-45.158-36.785-22.305 0-40.911 15.857-45.186 36.925-.605 2.985-.923 9.238 8.29 9.238h20.303c2.76 0 2.854-1.865 3.034-2.755 1.276-6.329 6.862-11.094 13.56-11.094 2.135 0 4.157.485 5.963 1.35l14.753-14.77a4.607 4.607 0 0 1 6.52 0 4.62 4.62 0 0 1 0 6.529l-14.756 14.773zm40.084-229.747a13.842 13.842 0 0 1-6.455-11.717c0-7.649 6.193-13.849 13.832-13.849 7.64 0 13.833 6.2 13.833 13.849 0 4.933-2.576 9.263-6.455 11.717v26.643c0 4.079-3.303 7.386-7.378 7.386-4.074 0-7.377-3.307-7.377-7.386v-26.643zm-105.13 0v26.643c0 4.079-3.303 7.386-7.377 7.386-4.075 0-7.378-3.307-7.378-7.386v-26.643a13.842 13.842 0 0 1-6.455-11.717c0-7.649 6.193-13.849 13.833-13.849 7.64 0 13.833 6.2 13.833 13.849 0 4.933-2.577 9.263-6.456 11.717zm52.104 28.906c62.9 0 113.89 51.049 113.89 114.111v110.828c-.187 38.282-30.31 74.196-67.32 74.196h-92.218c-39.06 0-68.09-35.34-68.242-74.251v-110.863c0-62.972 50.99-114.021 113.89-114.021zm86.383 242.862l-30.433 29.544a5.082 5.082 0 0 0-.11 7.18 5.068 5.068 0 0 0 7.172.111l30.432-29.544a5.082 5.082 0 0 0 .11-7.18 5.068 5.068 0 0 0-7.171-.11zm-30.433 0l-30.432 29.544a5.082 5.082 0 0 0-.11 7.18 5.068 5.068 0 0 0 7.172.111l30.432-29.544a5.082 5.082 0 0 0 .11-7.18 5.068 5.068 0 0 0-7.172-.11zm-30.432 0l-30.432 29.544a5.082 5.082 0 0 0-.11 7.18 5.068 5.068 0 0 0 7.172.111l30.432-29.544a5.082 5.082 0 0 0 .11-7.18 5.068 5.068 0 0 0-7.172-.11zm-30.432 0l-30.432 29.544a5.082 5.082 0 0 0-.11 7.18 5.068 5.068 0 0 0 7.171.111l30.433-29.544a5.082 5.082 0 0 0 .11-7.18 5.068 5.068 0 0 0-7.172-.11zm-30.429-.003l-28.588 27.697a5.082 5.082 0 0 0-.117 7.18 5.068 5.068 0 0 0 7.172.118l28.588-27.697a5.082 5.082 0 0 0 .117-7.18 5.068 5.068 0 0 0-7.172-.118zm-30.374-.056l-14.755 13.849a5.082 5.082 0 0 0-.231 7.177 5.068 5.068 0 0 0 7.17.232l14.754-13.849a5.082 5.082 0 0 0 .231-7.177 5.068 5.068 0 0 0-7.169-.232zm19.474 71.094c-.11-.92-.315-5.532 5.196-5.532h81.135c5.559 0 5.344 4.59 5.238 5.488-2.71 22.908-22.176 40.675-45.787 40.675-23.596 0-43.052-17.744-45.782-40.63zm-95.313-61.85c-10.186 0-18.444-8.267-18.444-18.465s8.258-18.465 18.444-18.465 18.444 8.267 18.444 18.465-8.258 18.465-18.444 18.465zm0-46.162c-7.64 0-13.833-6.2-13.833-13.85 0-7.648 6.193-13.848 13.833-13.848 7.64 0 13.833 6.2 13.833 13.849 0 7.648-6.194 13.849-13.833 13.849zm0-36.93c-7.64 0-13.833-6.2-13.833-13.85 0-7.648 6.193-13.848 13.833-13.848 7.64 0 13.833 6.2 13.833 13.849 0 7.648-6.194 13.849-13.833 13.849zm0-36.93c-10.186 0-18.444-8.267-18.444-18.465s8.258-18.465 18.444-18.465 18.444 8.267 18.444 18.465-8.258 18.465-18.444 18.465zm283.112 120.022c-10.186 0-18.444-8.267-18.444-18.465s8.258-18.465 18.444-18.465 18.444 8.267 18.444 18.465-8.258 18.465-18.444 18.465zm0-46.162c-7.64 0-13.833-6.2-13.833-13.85 0-7.648 6.194-13.848 13.833-13.848 7.64 0 13.833 6.2 13.833 13.849 0 7.648-6.193 13.849-13.833 13.849zm0-36.93c-7.64 0-13.833-6.2-13.833-13.85 0-7.648 6.194-13.848 13.833-13.848 7.64 0 13.833 6.2 13.833 13.849 0 7.648-6.193 13.849-13.833 13.849zm0-36.93c-10.186 0-18.444-8.267-18.444-18.465s8.258-18.465 18.444-18.465 18.444 8.267 18.444 18.465-8.258 18.465-18.444 18.465zm-186.743-9.233h91.301c5.093 0 9.222-4.133 9.222-9.232 0-5.1-4.129-9.233-9.222-9.233h-91.301c-5.093 0-9.222 4.134-9.222 9.233s4.129 9.232 9.222 9.232zm91.594-4.616h-38.739c-1.406 0-2.46-1.223-.898-2.787l3.672-3.676c2.767-2.768 2.767-2.77 5.545-2.77h30.42a4.614 4.614 0 0 1 4.611 4.617 4.614 4.614 0 0 1-4.61 4.616zm-13.67-41.546c7.64 0 13.834-6.2 13.834-13.85 0-7.648-6.194-13.848-13.833-13.848-7.64 0-13.833 6.2-13.833 13.849 0 7.648 6.193 13.849 13.833 13.849zm-64.553 0c7.64 0 13.833-6.2 13.833-13.85 0-7.648-6.193-13.848-13.833-13.848-7.64 0-13.832 6.2-13.832 13.849 0 7.648 6.193 13.849 13.832 13.849zm0-4.617c-5.093 0-9.221-4.133-9.221-9.232 0-5.1 4.128-9.233 9.221-9.233 5.094 0 9.222 4.134 9.222 9.233s-4.128 9.232-9.222 9.232z" transform="translate(-1000 -1272)"/></svg>