<svg xmlns="http://www.w3.org/2000/svg" width="55" height="38" viewBox="0 0 55 38">
  <g fill="none" fill-rule="evenodd" transform="translate(-235 -64)">
    <path fill="#C24282" fill-rule="nonzero" d="M267.907534,40.4822795 C266.16912,40.4913812 264.658247,40.9100568 263.393119,41.5289685 C262.928935,40.6097025 262.464751,39.7905546 262.382837,39.1898461 C262.29182,38.4890196 262.1826,38.0612423 262.29182,37.2238911 C262.40104,36.3865399 262.892529,35.1942246 262.883427,35.1032082 C262.874325,35.0121917 262.774207,34.5844145 261.773026,34.5753128 C260.771846,34.5662112 259.90719,34.7664473 259.807071,35.030395 C259.706953,35.2943427 259.515819,35.8950511 259.388396,36.5139629 C259.215465,37.4241273 257.386034,40.673414 256.339345,42.3754214 C256.002584,41.7110014 255.711332,41.1284962 255.64762,40.6643124 C255.556604,39.9634858 255.447384,39.5357086 255.556604,38.6983574 C255.665824,37.8610062 256.157312,36.6686909 256.148211,36.5776744 C256.139109,36.486658 256.038991,36.0588807 255.03781,36.0497791 C254.036629,36.0406774 253.171973,36.2409136 253.071855,36.5048613 C252.971737,36.7688089 252.862517,37.3877207 252.65318,37.9884292 C252.443842,38.5891376 250.013703,44.0137172 249.376588,45.4153703 C249.048929,46.1344002 248.766778,46.7078037 248.566542,47.0991744 C248.566542,47.0991744 248.566542,47.0991744 248.566542,47.0991744 C248.566542,47.0991744 248.55744,47.1264793 248.530135,47.1719875 C248.357204,47.5087484 248.257086,47.6907812 248.257086,47.6907812 C248.257086,47.6907812 248.257086,47.6907812 248.257086,47.6998829 C248.120561,47.9456272 247.974935,48.1731683 247.902122,48.1731683 C247.847512,48.1731683 247.747394,47.51785 247.920325,46.6258889 C248.284391,44.7418487 249.149047,41.8111195 249.139945,41.7110014 C249.139945,41.6563915 249.303775,41.1466995 248.575643,40.8827518 C247.865715,40.6188042 247.610869,41.0556831 247.547158,41.0556831 C247.483446,41.0556831 247.437938,41.210411 247.437938,41.210411 C247.437938,41.210411 248.229781,37.915616 245.927065,37.915616 C244.489005,37.915616 242.504847,39.4902004 241.521869,40.9100568 C240.902958,41.2468176 239.583219,41.9658474 238.172465,42.7394871 C237.635468,43.0398414 237.080267,43.3401956 236.561474,43.6223465 C236.525067,43.58594 236.488661,43.5404318 236.452254,43.5040252 C233.667151,40.5277877 228.515621,38.4253081 228.73406,34.4296865 C228.815975,32.9734236 229.316565,29.1507333 238.627547,24.508895 C246.291131,20.7317129 252.389232,21.778402 253.445023,24.0993211 C254.955895,27.4123193 250.177533,33.5650304 242.259103,34.4569915 C239.237357,34.7937523 237.653671,33.6287419 237.253199,33.191863 C236.834523,32.7367808 236.770812,32.7094759 236.616084,32.8004923 C236.361238,32.937017 236.525067,33.3465909 236.616084,33.5832337 C236.852726,34.2021454 237.826602,35.2943427 239.474,35.8313396 C240.930263,36.3046251 244.470802,36.5685728 248.757676,34.9120736 C253.554242,33.0553383 257.304119,27.8947064 256.202821,23.5714257 C255.101522,19.1844335 247.820207,17.7372722 240.930263,20.1856143 C236.834523,21.6418773 232.392921,23.9354915 229.198244,26.9208306 C225.402859,30.4704716 224.80215,33.5559287 225.047895,34.8483621 C225.930754,39.4355905 232.256396,42.4209296 234.786653,44.632629 C234.65923,44.7054421 234.540909,44.7691536 234.440791,44.8237635 C233.175662,45.4517769 228.351791,47.9729322 227.150374,50.6397137 C225.785128,53.6614594 227.368814,55.8276506 228.415503,56.1189032 C231.664789,57.0199659 235.005093,55.3998733 236.798116,52.7239901 C238.59114,50.0481069 238.372701,46.5712791 237.544451,44.9784914 C237.53535,44.9602882 237.526248,44.9420849 237.508045,44.9238816 C237.835704,44.7327471 238.172465,44.5325109 238.500124,44.3413764 C239.146341,43.9591074 239.783456,43.6041433 240.329554,43.3128907 C240.020098,44.1593435 239.792557,45.169626 239.683337,46.6258889 C239.546813,48.3369979 240.247639,50.557799 241.166905,51.4315567 C241.576479,51.8138258 242.058866,51.8229274 242.368322,51.8229274 C243.442316,51.8229274 243.924703,50.9309663 244.4617,49.8751757 C245.117019,48.5827423 245.708626,47.0809711 245.708626,47.0809711 C245.708626,47.0809711 244.971392,51.1403041 246.973754,51.1403041 C247.701885,51.1403041 248.439119,50.1937332 248.766778,49.7113461 C248.766778,49.7204477 248.766778,49.7204477 248.766778,49.7204477 C248.766778,49.7204477 248.784981,49.6931428 248.821388,49.6294313 C248.894201,49.5111099 248.939709,49.4382968 248.939709,49.4382968 C248.939709,49.4382968 248.939709,49.4291952 248.939709,49.4200935 C249.230962,48.9104015 249.88628,47.7544927 250.860156,45.8340459 C252.116183,43.3583989 253.326701,40.2638401 253.326701,40.2638401 C253.326701,40.2638401 253.435921,41.0192765 253.809088,42.2753033 C254.027528,43.0125364 254.48261,43.8225827 254.846676,44.6053241 C254.555423,45.014898 254.37339,45.2424391 254.37339,45.2424391 C254.37339,45.2424391 254.37339,45.2424391 254.382492,45.2515407 C254.145849,45.5609966 253.891003,45.8977574 253.608852,46.2254166 C252.616773,47.4086303 251.433559,48.7647752 251.26973,49.1561458 C251.078595,49.6203297 251.124103,49.9570905 251.488169,50.2301398 C251.752117,50.4303759 252.225402,50.4576809 252.707789,50.4303759 C253.599751,50.3666644 254.227764,50.148225 254.53722,50.0117003 C255.019607,49.8387691 255.583909,49.5748215 256.111804,49.1834508 C257.08568,48.4644209 257.677287,47.4359352 257.622677,46.0797903 C257.595372,45.3334555 257.349628,44.5871208 257.049273,43.8862942 C257.14029,43.7588712 257.222205,43.6314482 257.313221,43.5040252 C258.851399,41.2559192 260.043714,38.7893738 260.043714,38.7893738 C260.043714,38.7893738 260.152934,39.5448102 260.526101,40.800837 C260.708134,41.4379521 261.081302,42.129677 261.408961,42.8031986 C259.961799,43.9773106 259.069838,45.3425572 258.751281,46.2345183 C258.177877,47.8910174 258.623858,48.6373522 259.470311,48.8102834 C259.85258,48.8921982 260.398678,48.7101653 260.799151,48.5372341 C261.308843,48.3734045 261.909551,48.0912535 262.482955,47.6725779 C263.456831,46.9535481 264.3943,45.9523673 264.33969,44.5962224 C264.312385,43.9773106 264.148555,43.3675005 263.921014,42.7758937 C265.149736,42.2662017 266.733422,41.9840507 268.753987,42.2206934 C273.086369,42.7303855 273.941924,45.4335736 273.778094,46.5712791 C273.614265,47.7089845 272.7041,48.3278963 272.403746,48.5190308 C272.103392,48.7101653 272.003274,48.7738768 272.030579,48.9104015 C272.066985,49.1106376 272.212612,49.101536 272.467458,49.0651294 C272.822422,49.0014179 274.742869,48.1458634 274.824783,46.0524854 C274.961308,43.3766022 272.412848,40.4549746 267.907534,40.4822795 Z M234.486299,51.7501143 C233.048239,53.315597 231.045878,53.9072038 230.181222,53.4066134 C229.252854,52.8696164 229.61692,50.557799 231.382639,48.9012998 C232.456632,47.8910174 233.840082,46.9535481 234.759348,46.3801446 C234.968686,46.2527215 235.278142,46.0706887 235.651309,45.8431476 C235.715021,45.806741 235.751427,45.7885377 235.751427,45.7885377 L235.751427,45.7885377 C235.824241,45.7430295 235.897054,45.6975213 235.969867,45.6520131 C236.616084,48.0184404 235.997172,50.1027168 234.486299,51.7501143 Z M244.953189,44.632629 C244.452599,45.8522492 243.40591,48.974113 242.768795,48.8011817 C242.222696,48.6555554 241.885935,46.2891281 242.659575,43.9500057 C243.050946,42.7758937 243.879195,41.3742406 244.361582,40.828142 C245.144324,39.9543842 246.00898,39.6631316 246.218318,40.0180957 C246.482265,40.4822795 245.262645,43.8680909 244.953189,44.632629 Z M253.590649,48.7647752 C253.381311,48.8739949 253.181075,48.946808 253.090058,48.8921982 C253.026347,48.8557916 253.181075,48.7101653 253.181075,48.7101653 C253.181075,48.7101653 254.264171,47.5451549 254.691948,47.0172596 C254.937692,46.7078037 255.228945,46.343738 255.538401,45.934164 C255.538401,45.9705706 255.538401,46.0160788 255.538401,46.0524854 C255.538401,47.4450369 254.191357,48.3825061 253.590649,48.7647752 Z M260.253052,47.2448007 C260.098324,47.135581 260.125629,46.7715152 260.644423,45.6338098 C260.844659,45.1878292 261.317944,44.4414945 262.127991,43.7224646 C262.219007,44.0137172 262.282718,44.2958682 262.273617,44.5598158 C262.264515,46.316433 261.008488,46.9717514 260.253052,47.2448007 Z" transform="translate(13 45)"/>
  </g>
</svg>
