<svg xmlns="http://www.w3.org/2000/svg" width="131" height="127" viewBox="0 0 131 127">
  <path fill="#1564B3" d="M35.1379989,54.6900479 L9.39117061,45.1662222 C8.39471391,46.1273941 7.03014355,46.72 5.525,46.72 C2.47362676,46.72 -3.55271368e-15,44.284429 -3.55271368e-15,41.28 C-3.55271368e-15,38.275571 2.47362676,35.84 5.525,35.84 C8.57637324,35.84 11.05,38.275571 11.05,41.28 C11.05,41.6588362 11.010671,42.0286279 10.9358138,42.3856327 L34.6437839,51.155279 C34.0325501,50.096144 33.4791685,49.0174844 32.9846299,47.9203319 C28.3471991,37.6320172 29.3477089,26.5192624 35.4159908,17.5334556 C41.2165066,8.94415221 51.0353188,3.19533517 62.5351074,1.68365849 C74.5420869,0.105310282 87.6696786,3.15723427 100.410018,10.8106028 L90.047701,27.5735823 C81.0636895,22.1767128 72.477707,20.1806295 65.1671949,21.1416151 C59.2012607,21.9258524 54.5217437,24.6656632 51.9920324,28.4116159 C49.6859932,31.8263587 49.3255286,35.8300731 51.1822632,39.9493088 C53.6862156,45.5044213 59.9581789,50.9742748 70.2354693,55.3528646 C81.246586,60.0440975 89.6439433,66.2185196 95.0056928,73.4833179 L120.76269,83.0109099 C121.743564,82.1342238 123.04592,81.6 124.475,81.6 C127.526373,81.6 130,84.035571 130,87.04 C130,90.044429 127.526373,92.48 124.475,92.48 C121.423627,92.48 118.95,90.044429 118.95,87.04 C118.95,86.5955859 119.004124,86.1636185 119.106235,85.7501395 L97.8007502,77.8691796 C98.3673275,78.915204 98.8760065,79.9800479 99.3257201,81.0627174 C103.703364,91.6017401 101.988616,102.848691 95.014689,111.686599 C88.4302889,120.030869 77.816649,125.432809 65.4573107,126.731103 C52.5080316,128.091368 38.2366683,124.961332 24.05,117.296119 L33.6210905,100.082049 C44.3643119,105.886731 54.5957978,108.130729 63.3472999,107.211422 C70.5365372,106.456224 76.17991,103.583962 79.2968971,99.6338708 C81.9505533,96.2709489 82.5343561,92.4418139 80.8975519,88.5012657 C78.6687076,83.1354014 72.5629062,77.7295351 62.335454,73.3721786 C51.5957513,68.7965803 43.2996299,62.8193082 37.7918572,55.7993276 L68.4344054,67.2944856 C78.8407093,72.2792202 85.5873128,78.6334491 88.4614122,85.5698724 C91.2467861,92.2921632 90.1889673,99.2475241 85.7249369,104.9187 C81.1558733,110.723312 73.4321505,114.664126 64.0801428,115.648945 C53.5753156,116.755163 41.658132,114.134982 29.4799558,107.538689 L27.95,110.2972 C40.6786173,117.191639 53.2415825,119.953806 64.4174318,118.776926 C74.5958892,117.705076 83.114118,113.358888 88.2374537,106.85012 C93.392087,100.301591 94.6306894,92.1575434 91.4071875,84.3778635 C89.6585538,80.1576671 86.6766355,76.1826675 82.5215585,72.5791 L93.7731769,76.8 L94.9,73.8504881 L69.6179184,64.3662401 C68.6917816,63.9259528 67.7396096,63.4967355 66.7616148,63.079034 C54.6952261,57.9254802 46.8352979,51.0537733 43.4050677,43.424838 C40.3832428,36.7042084 41.0119434,29.7038843 44.8945242,23.9403923 C48.7943571,18.1512904 55.626043,14.1415035 63.9085158,13.0500558 C73.182944,11.8278901 83.6666808,14.2712004 94.2185653,20.6256146 L95.875,17.9393888 C84.7226598,11.2233762 73.5129388,8.61087003 63.4877719,9.93196649 C54.3207028,11.1399846 46.6674914,15.6319573 42.2448146,22.1971941 C37.7608327,28.8534353 37.0298197,36.9929655 40.4961438,44.7021747 C42.5240821,49.2123706 45.8970902,53.4315671 50.5538119,57.2145857 L36.2268231,51.84 L35.1379989,54.6900479 Z M124.475,89.3714286 C125.782731,89.3714286 126.842857,88.3276124 126.842857,87.04 C126.842857,85.7523876 125.782731,84.7085714 124.475,84.7085714 C123.167269,84.7085714 122.107143,85.7523876 122.107143,87.04 C122.107143,88.3276124 123.167269,89.3714286 124.475,89.3714286 Z M5.525,38.9485714 C4.21726861,38.9485714 3.15714286,39.9923876 3.15714286,41.28 C3.15714286,42.5676124 4.21726861,43.6114286 5.525,43.6114286 C6.83273139,43.6114286 7.89285714,42.5676124 7.89285714,41.28 C7.89285714,39.9923876 6.83273139,38.9485714 5.525,38.9485714 Z" transform="translate(.192 -1)"/>
</svg>
