<svg xmlns="http://www.w3.org/2000/svg" width="18" height="31" viewBox="0 0 18 31">
  <path fill="#545454" d="M290.864351,151.392001 C287.282697,151.391898 285.310274,150.492809 285.310274,148.860345 C285.310376,147.001105 286.194251,145 288.134703,145 C288.737728,145 289.420011,145.188227 290.162639,145.559438 C293.54959,147.252862 298.702234,147.272497 298.753325,147.272497 C298.928394,147.272599 299.070977,147.415183 299.070977,147.590046 L299.070977,149.336618 C299.070977,149.42153 299.037979,149.501303 298.978046,149.561133 C297.985718,150.553667 294.270321,151.392001 290.864968,151.392001 L290.864351,151.392001 Z M290.864351,152.873862 L290.864865,152.873862 C291.803121,152.873862 292.820635,152.81136 293.831365,152.688822 L293.831365,156.797121 C293.164501,156.65978 292.474199,156.587512 291.767244,156.587512 C291.060288,156.587512 290.369986,156.65978 289.703123,156.797121 L289.703123,152.839527 C290.074128,152.861526 290.459936,152.873862 290.864351,152.873862 Z M288.743176,170.242332 L288.743176,170.242229 L288.201626,170.242229 L290.4476,166.873268 C290.446367,166.849727 290.444105,166.826185 290.444105,166.80213 C290.444105,166.049634 291.037672,165.43746 291.767244,165.43746 C292.496815,165.43746 293.090382,166.049634 293.090382,166.80213 C293.090382,167.408342 292.704985,167.92265 292.174023,168.100186 L290.225347,171.023098 C289.889293,170.533461 289.339725,170.242332 288.743176,170.242332 Z M283.038805,171.889702 C283.094523,171.787519 283.201229,171.724194 283.317598,171.724194 L288.743176,171.724194 C288.851733,171.724194 288.951655,171.778678 289.010251,171.869964 L290.640967,174.404703 C290.703778,174.502363 290.708198,174.626443 290.652583,174.728421 C290.596866,174.830501 290.490057,174.893826 290.37379,174.893826 L284.948315,174.893826 C284.839758,174.893826 284.739836,174.839445 284.681138,174.748261 L283.050421,172.213625 C282.987611,172.115862 282.98319,171.991679 283.038805,171.889702 Z M291.767244,158.069374 C296.590208,158.069374 300.499897,161.979166 300.5,166.802027 C300.5,171.580993 296.660626,175.461076 291.898416,175.531494 C291.917434,175.500963 291.936041,175.470123 291.953517,175.438255 C292.26901,174.860005 292.243619,174.15675 291.887108,173.602864 L290.672527,171.714839 C291.025028,171.79307 291.390996,171.835835 291.767244,171.835835 C294.553946,171.835835 296.813387,169.58215 296.813387,166.80213 C296.813387,164.022213 294.553946,161.768323 291.767244,161.768323 C288.980542,161.768323 286.721101,164.022213 286.721101,166.80213 C286.721101,168.133287 287.240857,169.342112 288.086901,170.242332 L283.739078,170.242332 C283.285936,169.186576 283.034487,168.023805 283.034487,166.80213 C283.034487,161.979166 286.944279,158.069374 291.767244,158.069374 Z" transform="translate(-283 -145)"/>
</svg>
